<?xml version="1.0" standalone="no"?>
<!DOCTYPE svg PUBLIC "-//W3C//DTD SVG 20010904//EN"
 "http://www.w3.org/TR/2001/REC-SVG-20010904/DTD/svg10.dtd">
<svg version="1.0" xmlns="http://www.w3.org/2000/svg"
 width="1919.000000pt" height="1919.000000pt" viewBox="0 0 1919.000000 1919.000000"
 preserveAspectRatio="xMidYMid meet">
<metadata>
Created by potrace 1.14, written by Peter Selinger 2001-2017
</metadata>
<g transform="translate(0.000000,1919.000000) scale(0.100000,-0.100000)"
fill="#000000" stroke="none">
<path d="M10433 19179 c-95 -18 -172 -70 -208 -140 -10 -18 -20 -61 -23 -96
-11 -135 61 -218 228 -266 30 -9 88 -25 127 -37 45 -13 86 -32 107 -51 31 -26
34 -35 32 -74 -4 -77 -49 -105 -159 -100 -83 3 -138 35 -158 90 l-13 35 -99 0
-99 0 6 -32 c18 -88 76 -162 161 -203 60 -30 108 -39 195 -39 179 0 300 56
347 163 19 43 25 146 12 194 -24 87 -123 154 -303 201 -123 33 -160 50 -175
82 -33 74 18 134 114 134 68 -1 114 -26 139 -75 l21 -40 92 -1 c61 0 94 4 97
11 2 7 -6 38 -20 71 -44 112 -146 172 -298 178 -45 2 -100 -1 -123 -5z"/>
<path d="M5652 19169 c-16 -6 -17 -42 -17 -450 l0 -444 210 0 c232 -1 290 5
357 35 52 23 111 83 133 136 19 47 19 141 0 187 -16 38 -58 86 -90 104 -17 10
-17 13 13 43 42 42 60 76 67 134 17 121 -72 231 -203 252 -53 8 -449 11 -470
3z m426 -161 c15 -7 35 -30 45 -50 16 -33 17 -40 3 -73 -22 -51 -62 -65 -191
-65 l-105 0 -1 25 c0 14 -1 43 -1 65 0 99 2 109 19 112 39 8 206 -3 231 -14z
m7 -353 c38 -15 58 -47 63 -96 9 -98 -38 -129 -198 -131 -60 -1 -112 1 -115 4
-6 5 -8 88 -6 190 l1 46 118 -2 c64 -2 126 -7 137 -11z"/>
<path d="M7154 19171 c-2 -2 -4 -205 -4 -451 l0 -446 89 1 c49 0 93 4 97 8 4
4 7 83 7 176 -1 122 2 171 10 173 25 9 175 0 210 -11 57 -19 70 -47 73 -161 3
-119 11 -177 27 -182 7 -2 48 -4 92 -4 l80 1 -3 90 c-8 198 -10 221 -25 258
-9 20 -30 50 -47 66 l-31 28 36 27 c47 36 75 94 80 164 8 137 -78 235 -230
259 -37 6 -455 10 -461 4z m439 -171 c37 -18 56 -57 53 -108 -6 -79 -46 -99
-197 -101 l-106 -2 -1 108 c0 59 3 112 5 116 7 13 215 1 246 -13z"/>
<path d="M8893 19167 c-5 -9 -246 -714 -275 -806 -11 -35 -22 -69 -24 -75 -3
-8 22 -12 92 -11 l97 0 32 98 c18 54 35 100 38 103 4 4 263 8 313 5 6 -1 26
-43 44 -93 17 -51 36 -97 41 -103 14 -14 199 -14 199 1 0 6 -32 101 -71 210
-39 110 -86 242 -104 294 -19 52 -52 147 -75 210 -23 63 -43 124 -45 134 -3
11 -9 24 -14 29 -11 11 -241 15 -248 4z m152 -258 c14 -46 30 -93 35 -104 10
-24 50 -146 50 -155 0 -3 -52 -5 -115 -5 -70 0 -115 4 -115 10 0 6 20 74 44
151 25 78 48 158 52 179 8 47 14 37 49 -76z"/>
<path d="M11700 19172 c-6 -2 -10 -163 -10 -451 l0 -447 97 1 98 0 0 448 0
447 -25 1 c-14 0 -53 1 -88 2 -34 1 -67 1 -72 -1z"/>
<path d="M12763 19170 c-17 -5 -18 -28 -17 -435 1 -236 2 -437 3 -445 1 -13
41 -15 305 -15 168 0 307 2 309 5 3 3 8 32 12 65 3 33 9 68 11 77 5 16 -11 17
-183 17 -103 0 -204 0 -224 0 l-36 1 0 360 c0 199 -3 363 -6 366 -7 7 -151 10
-174 4z"/>
<path d="M13987 17444 c-1 -1 -65 -5 -142 -8 -172 -7 -368 -26 -450 -42 -11
-2 -32 -6 -46 -9 -65 -12 -205 -58 -257 -84 -158 -80 -270 -206 -340 -381 -28
-69 -68 -227 -76 -300 -4 -30 -9 -75 -12 -100 -3 -25 -8 -61 -11 -80 -4 -19
-8 -1359 -10 -2977 l-4 -2943 681 0 680 0 0 680 0 680 163 -2 162 -3 0 -677 0
-678 706 0 706 0 -2 2908 c-1 1599 -5 2932 -8 2962 -6 59 -16 149 -22 190 -2
14 -6 45 -9 70 -4 25 -16 81 -27 125 -11 44 -22 88 -24 97 -8 36 -86 183 -122
227 -90 113 -200 189 -353 243 -30 11 -62 21 -70 23 -87 20 -116 26 -148 30
-20 3 -46 7 -57 10 -11 2 -54 7 -95 11 -41 3 -91 8 -110 10 -100 10 -695 25
-703 18z m275 -1263 c15 -5 35 -25 45 -43 16 -31 17 -125 18 -1568 l0 -1535
-162 -1 -163 -1 0 1525 c0 1085 3 1535 11 1562 12 39 36 60 84 70 41 9 134 4
167 -9z"/>
<path d="M2994 17331 c3 -14 7 -55 11 -91 3 -36 8 -85 10 -110 3 -25 8 -81 11
-125 4 -44 8 -91 9 -105 2 -14 6 -61 10 -105 3 -44 8 -91 10 -105 2 -14 6 -59
10 -100 3 -41 8 -93 10 -115 2 -22 7 -71 10 -110 3 -38 8 -86 10 -105 2 -19 7
-71 10 -115 3 -44 8 -96 10 -115 7 -57 14 -131 20 -205 3 -38 8 -86 10 -105 2
-19 7 -66 10 -105 3 -38 8 -88 10 -110 2 -22 7 -71 10 -110 3 -38 7 -86 10
-105 2 -19 7 -71 11 -115 3 -44 8 -93 9 -110 2 -16 6 -68 10 -114 4 -46 8 -91
10 -100 1 -9 6 -54 9 -99 4 -46 9 -98 11 -115 2 -18 6 -68 10 -112 3 -44 8
-91 10 -105 2 -14 7 -61 10 -105 3 -44 8 -98 10 -120 5 -44 11 -116 20 -215 3
-36 8 -83 10 -105 2 -22 7 -71 10 -110 3 -38 8 -88 10 -110 2 -22 7 -71 10
-110 3 -38 8 -86 10 -105 2 -19 7 -66 10 -105 4 -38 8 -86 10 -105 2 -19 7
-73 10 -120 4 -47 9 -92 10 -101 2 -9 6 -56 10 -105 3 -49 8 -100 10 -114 2
-14 7 -56 10 -95 7 -86 14 -167 19 -220 2 -22 7 -76 11 -120 3 -44 8 -91 10
-105 2 -14 7 -59 10 -100 3 -41 7 -91 9 -110 7 -62 18 -174 21 -220 5 -62 14
-156 19 -210 3 -25 8 -76 11 -115 3 -38 8 -86 10 -105 2 -19 7 -71 10 -115 3
-44 8 -91 10 -105 2 -14 6 -61 10 -105 3 -44 8 -96 10 -115 8 -74 18 -184 30
-325 4 -49 9 -93 12 -97 2 -5 460 -8 1018 -8 l1013 0 6 38 c3 20 8 65 11 99 3
35 7 77 10 95 7 48 20 176 40 373 3 39 8 77 10 85 2 8 7 51 11 95 3 44 8 87 9
96 2 9 6 52 10 95 4 43 9 86 10 94 2 8 6 49 10 90 3 41 8 82 10 90 3 8 7 49
10 90 3 41 7 86 10 100 2 14 7 52 10 85 3 33 8 80 11 105 2 25 6 61 8 81 12
116 18 167 21 189 2 14 6 56 10 93 3 37 8 76 10 85 1 9 6 55 10 102 4 47 8 92
10 100 2 8 6 49 10 90 3 41 8 82 10 90 2 8 7 47 10 85 3 39 10 104 15 145 5
41 12 104 15 140 3 36 7 81 10 100 9 66 21 171 30 270 5 49 15 148 20 190 2
19 7 60 10 90 3 30 8 71 10 90 5 45 34 318 41 390 3 30 7 66 9 80 2 14 7 54
10 90 4 36 8 81 11 100 2 19 6 60 9 90 3 30 8 69 10 85 2 17 7 62 10 100 4 39
8 81 10 95 2 14 7 57 11 95 3 39 8 77 9 86 2 9 6 52 10 95 4 43 9 86 10 94 2
8 6 49 10 90 4 41 9 82 10 91 2 9 6 52 10 95 3 43 8 90 10 104 3 14 7 52 10
85 3 33 8 76 10 95 12 92 23 196 23 210 -1 8 2 40 6 70 10 79 14 118 21 180 3
30 8 71 11 90 2 20 6 60 9 90 6 68 14 144 20 190 3 19 7 62 10 95 3 33 7 74 9
90 3 17 8 62 11 100 4 39 11 93 15 122 3 29 4 57 1 62 -4 6 -273 10 -724 10
l-717 -1 -1 -21 c-1 -12 -2 -40 -4 -62 -3 -45 -14 -238 -20 -365 -2 -47 -7
-125 -9 -175 -3 -49 -8 -142 -11 -205 -3 -63 -7 -149 -10 -190 -3 -41 -7 -120
-10 -175 -5 -115 -13 -260 -20 -390 -3 -49 -7 -133 -10 -185 -2 -52 -7 -135
-10 -185 -3 -49 -7 -137 -10 -195 -7 -140 -14 -276 -20 -380 -3 -47 -7 -132
-10 -190 -3 -58 -8 -143 -10 -190 -16 -302 -23 -436 -30 -565 -3 -60 -7 -146
-10 -190 -3 -44 -7 -129 -10 -190 -3 -60 -7 -155 -10 -210 -10 -182 -14 -249
-20 -370 -4 -66 -8 -151 -10 -190 -4 -62 -7 -118 -20 -360 -2 -33 -4 -68 -4
-77 -1 -27 -31 -22 -32 5 0 12 -2 45 -4 72 -2 28 -6 127 -9 220 -4 94 -9 206
-11 250 -2 44 -7 141 -10 215 -3 74 -8 187 -11 250 -3 63 -7 165 -9 225 -3 61
-7 160 -10 220 -2 61 -7 169 -10 240 -3 72 -8 180 -10 240 -3 61 -7 173 -10
250 -3 77 -7 187 -10 245 -13 263 -15 313 -20 445 -3 77 -7 185 -10 240 -6
132 -14 321 -20 475 -3 69 -7 175 -10 235 -3 61 -7 157 -10 215 -2 58 -7 168
-10 245 -4 77 -8 185 -10 240 -9 201 -17 391 -20 435 -1 25 -3 57 -4 72 l-1
27 -720 -1 -720 0 4 -27z"/>
<path d="M6829 17357 c-1 -1 -2 -1540 -3 -3419 l-1 -3418 702 0 703 0 0 3419
0 3420 -700 0 c-385 0 -701 -1 -701 -2z"/>
<path d="M8939 17342 c-4 -93 -2 -6806 2 -6814 6 -10 1923 -5 2044 5 206 18
246 23 375 49 249 48 427 154 533 316 61 93 112 224 133 342 3 19 7 40 8 45 3
9 12 73 21 140 17 120 20 512 20 2545 0 1985 -3 2391 -20 2479 -1 9 -6 43 -9
76 -9 84 -53 256 -84 329 -62 147 -163 262 -297 337 -74 41 -220 93 -295 104
-24 4 -47 8 -50 10 -3 2 -30 6 -60 10 -30 3 -66 8 -80 10 -14 2 -59 7 -100 10
-41 3 -102 9 -135 12 -33 3 -498 7 -1032 9 -914 3 -973 2 -974 -14z m1656
-1202 c22 -7 42 -23 53 -43 16 -30 17 -160 19 -2130 1 -1557 -2 -2110 -10
-2144 -19 -74 -41 -85 -191 -87 l-126 -2 0 2207 c0 2051 1 2208 17 2211 37 7
205 -1 238 -12z"/>
<path d="M9327 10094 c-1 -1 -56 -5 -122 -8 -66 -4 -142 -9 -170 -12 -74 -7
-147 -15 -175 -19 -14 -2 -45 -6 -70 -10 -284 -36 -530 -159 -666 -332 -72
-91 -150 -252 -168 -349 -2 -10 -9 -37 -14 -59 -6 -22 -13 -58 -17 -80 -3 -23
-7 -50 -9 -62 -3 -12 -8 -53 -11 -90 -4 -37 -9 -76 -10 -85 -17 -86 -20 -618
-20 -2983 0 -2392 3 -2861 20 -2975 2 -14 6 -47 10 -75 3 -27 8 -70 11 -95 3
-25 12 -74 20 -110 8 -36 17 -76 20 -90 26 -127 118 -306 206 -401 133 -144
367 -249 628 -284 25 -3 52 -8 60 -10 8 -2 47 -6 85 -10 39 -3 86 -8 105 -10
251 -27 1069 -27 1320 0 19 2 64 7 100 10 36 4 76 8 90 10 14 2 57 9 95 15
356 55 602 219 729 485 35 71 81 209 91 268 3 17 8 39 10 47 2 8 7 35 10 60 3
25 8 52 10 60 4 13 8 45 21 175 16 167 19 608 19 2935 0 2381 -3 2792 -19
2940 -3 25 -8 70 -11 100 -6 53 -9 75 -20 140 -65 379 -210 602 -482 739 -156
78 -358 123 -663 146 -36 2 -99 7 -140 11 -72 6 -867 13 -873 8z m510 -1480
c17 -13 33 -38 40 -65 11 -35 13 -549 11 -2554 -3 -2784 3 -2552 -70 -2588
-46 -22 -174 -24 -233 -4 -34 12 -43 21 -58 63 -18 47 -19 148 -19 2534 0
1367 3 2501 7 2520 4 19 8 40 9 46 3 20 30 47 61 61 20 9 62 12 127 11 80 -3
101 -7 125 -24z"/>
<path d="M13648 10095 c-2 -2 -66 -6 -143 -10 -77 -4 -147 -9 -156 -10 -9 -2
-52 -6 -95 -10 -43 -4 -81 -9 -84 -10 -3 -2 -30 -6 -60 -10 -178 -21 -370 -90
-500 -178 -58 -40 -147 -129 -189 -190 -78 -115 -151 -309 -175 -469 -10 -64
-17 -112 -21 -138 -2 -14 -6 -54 -10 -90 -3 -36 -9 -87 -12 -115 -4 -27 -8
-1578 -10 -3446 l-4 -3397 794 0 794 0 1 781 c0 430 1 787 1 793 1 7 61 11
191 11 l190 0 0 -792 0 -793 823 2 822 1 0 3315 c0 2926 -3 3507 -19 3610 -2
14 -7 52 -10 85 -12 110 -39 253 -68 355 -26 90 -87 216 -136 285 -42 59 -130
146 -189 186 -126 87 -333 162 -508 184 -27 3 -57 8 -65 10 -8 2 -46 6 -85 10
-38 3 -88 8 -110 10 -114 12 -264 17 -597 20 -202 1 -369 1 -370 0z m432
-1468 c21 -8 42 -25 55 -47 20 -35 20 -41 23 -1833 l2 -1797 -191 2 -192 3 0
1775 c1 1745 2 1822 31 1867 25 39 192 57 272 30z"/>
<path d="M3596 9992 c-2 -4 -4 -1799 -4 -3989 l0 -3982 1131 4 c623 1 1163 5
1202 9 38 3 103 8 145 11 41 3 86 7 100 9 14 3 50 7 81 11 31 3 67 8 80 10 13
3 41 7 64 10 57 9 107 22 210 57 306 102 483 299 570 632 13 50 26 107 29 126
3 19 10 67 15 105 33 222 35 310 36 1405 0 1158 -2 1239 -46 1455 -59 294
-166 509 -309 622 -63 49 -165 102 -266 137 -65 23 -94 51 -62 60 137 41 259
93 310 133 113 91 201 202 258 326 31 68 66 168 73 208 3 13 8 35 11 49 27
114 31 218 31 740 0 445 -6 677 -19 760 -2 14 -7 52 -11 85 -18 166 -71 366
-123 470 -63 127 -191 273 -284 324 -194 107 -330 148 -573 177 -22 2 -56 6
-76 9 -20 2 -72 7 -115 10 -43 3 -108 8 -144 12 -103 8 -2308 14 -2314 5z
m1897 -1406 c66 -10 93 -36 107 -100 7 -37 10 -220 8 -577 -3 -574 -2 -565
-62 -596 -23 -12 -68 -17 -173 -19 l-143 -4 0 649 c0 423 3 650 10 653 17 5
205 1 253 -6z m58 -2600 c56 -36 54 17 54 -1271 0 -1137 -1 -1192 -18 -1219
-30 -45 -72 -56 -220 -58 l-132 -1 -3 1286 -2 1286 147 -2 c120 -3 153 -6 174
-21z"/>
<path d="M9603 1358 c-26 -13 -21 -1 -94 -218 -44 -132 -64 -181 -84 -198 -25
-21 -33 -22 -226 -22 l-201 0 -29 -29 c-34 -34 -39 -87 -11 -119 9 -10 67 -55
127 -98 143 -102 132 -94 171 -131 19 -17 34 -41 34 -53 0 -13 -27 -106 -60
-208 l-60 -185 17 -36 c13 -25 28 -39 53 -47 43 -14 60 -7 185 86 179 132 192
140 225 140 25 0 67 -25 191 -115 163 -118 192 -130 240 -105 25 14 47 59 43
89 -3 13 -29 99 -59 191 -30 91 -55 175 -55 186 0 34 24 57 172 164 78 57 151
113 161 123 33 38 10 129 -37 141 -12 3 -108 6 -214 6 l-194 0 -27 28 c-20 20
-41 71 -79 188 -29 89 -52 166 -52 172 0 6 -14 22 -31 36 -32 27 -69 32 -106
14z"/>
<path d="M3118 749 c-11 -7 -14 -66 -5 -76 5 -5 5569 -9 5694 -4 l22 1 -21 38
c-12 20 -23 39 -25 41 -5 7 -5654 7 -5665 0z"/>
<path d="M10529 752 c-8 -1 -24 -20 -36 -42 l-21 -40 21 -1 c12 0 1299 -1
2859 -2 l2836 -2 4 25 c2 14 1 34 -2 45 -5 20 -20 20 -2826 20 -1551 0 -2827
-1 -2835 -3z"/>
</g>
</svg>
